<svg width="20" height="15" viewBox="0 0 20 15" fill="none" xmlns="http://www.w3.org/2000/svg">
<path fill-rule="evenodd" clip-rule="evenodd" d="M18.9066 13.98C19.6355 13.26 20 12.32 20 11.16C20 11.1315 19.9998 11.1031 19.9993 11.0748C19.9998 11.0499 20 11.025 20 11C20 8.79086 18.2091 7 16 7C15.7263 7 15.459 7.02749 15.2007 7.07987C15.4119 6.11645 15.7648 5.2565 16.2595 4.5C16.8733 3.62 17.679 2.82 18.6764 2.1L17.3529 0C15.5114 1.04 14.0728 2.46 13.037 4.26C12.0395 6.02 11.5408 7.82 11.5408 9.66C11.5408 11.38 11.9628 12.7 12.8068 13.62C13.4452 14.2857 14.2042 14.7105 15.0836 14.8945C15.3779 14.9635 15.6847 15 16 15C16.0219 15 16.0438 14.9998 16.0656 14.9995C16.0918 14.9998 16.1181 15 16.1444 15C17.257 15 18.1777 14.66 18.9066 13.98Z" fill="white"/>
<path fill-rule="evenodd" clip-rule="evenodd" d="M7.36585 13.98C8.09476 13.26 8.45921 12.32 8.45921 11.16C8.45921 11.1315 8.45899 11.1031 8.45854 11.0748C8.459 11.0499 8.45923 11.025 8.45923 11C8.45923 8.79086 6.66837 7 4.45923 7C4.1855 7 3.9182 7.02749 3.65993 7.07987C3.87111 6.11645 4.22405 5.2565 4.71874 4.5C5.33256 3.62 6.13821 2.82 7.13566 2.1L5.81211 0C3.97065 1.04 2.53201 2.46 1.49619 4.26C0.498727 6.02 0 7.82 0 9.66C0 11.38 0.422 12.7 1.266 13.62C1.90445 14.2857 2.6634 14.7105 3.54287 14.8945C3.83714 14.9635 4.14392 15 4.45923 15C4.48115 15 4.50303 14.9998 4.52487 14.9995C4.55104 14.9998 4.5773 15 4.60365 15C5.7162 15 6.63693 14.66 7.36585 13.98Z" fill="white"/>
</svg>
